<svg id="svg" version="1.1" xmlns="http://www.w3.org/2000/svg" xmlns:xlink="http://www.w3.org/1999/xlink" width="400" height="385.7142857142857" viewBox="0, 0, 400,385.7142857142857"><g id="svgg"><path id="path0" d="M0.000 192.864 L 0.000 385.728 200.000 385.728 L 400.000 385.728 400.000 192.864 L 400.000 0.000 200.000 0.000 L 0.000 0.000 0.000 192.864 M221.215 4.770 C 248.690 8.305,273.393 16.403,294.118 28.668 C 295.178 29.296,296.827 30.247,297.782 30.782 C 330.758 49.264,365.076 90.383,377.361 126.133 C 382.552 141.240,384.718 148.972,386.112 157.377 C 386.376 158.968,386.732 160.878,386.903 161.620 C 387.333 163.480,388.681 174.675,389.180 180.521 C 390.214 192.632,389.133 213.556,386.877 225.072 C 385.183 233.724,384.364 237.533,383.517 240.694 C 382.978 242.710,382.398 244.966,382.229 245.709 C 381.653 248.240,381.197 249.758,379.966 253.230 C 379.289 255.140,378.469 257.483,378.144 258.438 C 376.001 264.722,368.768 280.457,365.434 286.090 C 358.506 297.793,354.870 303.155,348.368 311.256 C 332.458 331.081,314.966 345.990,292.575 358.810 C 290.472 360.014,278.721 365.856,276.953 366.577 C 275.998 366.967,274.262 367.721,273.095 368.255 C 271.929 368.788,270.280 369.482,269.431 369.797 C 268.582 370.113,267.541 370.520,267.117 370.702 C 266.006 371.179,254.604 374.993,253.230 375.348 C 252.594 375.512,250.685 376.019,248.987 376.474 C 247.290 376.930,245.294 377.449,244.552 377.628 C 243.809 377.807,242.854 378.039,242.430 378.144 C 235.329 379.893,226.726 381.115,213.308 382.280 C 199.285 383.497,179.000 382.206,163.356 379.100 C 155.778 377.596,155.006 377.424,151.591 376.476 C 150.000 376.035,147.483 375.341,145.997 374.935 C 105.497 363.854,65.011 333.486,40.807 296.031 C 28.445 276.903,17.694 250.664,14.321 231.394 C 12.813 222.775,12.352 219.832,11.822 215.429 C 2.041 134.232,47.985 52.650,121.504 20.664 C 122.883 20.064,124.706 19.263,125.554 18.885 C 130.394 16.729,141.897 12.573,146.384 11.359 C 147.657 11.015,149.219 10.580,149.855 10.392 C 159.317 7.599,172.246 5.372,186.500 4.081 C 190.776 3.693,216.875 4.212,221.215 4.770 M249.566 134.638 C 243.596 135.492,237.913 138.108,232.808 142.354 C 222.367 151.035,220.057 157.963,219.727 181.589 C 219.529 195.813,218.841 194.393,225.873 194.288 L 230.858 194.214 231.078 179.556 C 231.320 163.326,231.343 163.162,233.986 158.105 C 239.630 147.306,255.239 141.946,265.144 147.405 C 267.856 148.900,268.701 149.444,270.424 150.806 C 274.189 153.782,277.262 158.556,278.749 163.742 C 279.308 165.689,279.436 168.270,279.559 180.039 L 279.705 194.021 285.124 194.021 L 290.542 194.021 290.354 178.496 C 290.170 163.306,290.069 162.027,288.859 159.600 C 288.675 159.232,288.525 158.599,288.525 158.193 C 288.525 157.787,287.714 155.832,286.724 153.848 C 279.796 139.973,265.163 132.407,249.566 134.638 " stroke="none" fill="#ffffff" fill-rule="evenodd"></path><path id="path1" d="M195.564 4.069 C 195.246 4.165,191.340 4.509,186.885 4.835 C 178.885 5.420,177.676 5.552,169.720 6.713 C 162.846 7.715,158.280 8.670,151.977 10.423 C 151.234 10.630,149.325 11.137,147.734 11.552 C 145.059 12.248,137.371 14.697,135.583 15.422 C 135.159 15.594,133.857 16.110,132.690 16.567 C 130.129 17.572,128.861 18.107,127.971 18.560 C 127.602 18.747,127.135 18.901,126.931 18.901 C 126.205 18.901,112.619 25.414,109.557 27.229 C 108.809 27.673,107.155 28.613,105.882 29.318 C 100.531 32.281,90.709 38.709,86.596 41.940 C 84.233 43.797,78.628 48.325,78.231 48.698 C 77.949 48.963,76.679 50.041,75.407 51.093 C 70.048 55.527,57.563 68.516,53.147 74.253 C 52.570 75.002,50.071 78.120,49.437 78.882 C 49.084 79.306,48.461 80.169,48.054 80.800 C 47.647 81.431,47.160 82.125,46.972 82.343 C 45.270 84.317,36.258 98.330,36.258 99.003 C 36.258 99.140,35.855 99.789,35.362 100.446 C 34.869 101.102,33.880 102.854,33.163 104.339 C 32.447 105.824,31.288 108.054,30.588 109.295 C 29.888 110.535,29.315 111.703,29.315 111.892 C 29.315 112.080,28.559 113.842,27.634 115.808 C 26.709 117.774,25.734 119.990,25.468 120.733 C 25.201 121.475,24.592 122.951,24.115 124.012 C 23.284 125.855,19.569 136.760,18.530 140.405 C 18.257 141.360,17.810 142.922,17.537 143.877 C 17.263 144.831,16.949 146.046,16.840 146.577 C 16.731 147.107,16.363 148.669,16.022 150.048 C 14.705 155.373,13.731 160.740,13.117 166.056 C 12.921 167.753,12.592 170.096,12.386 171.263 C 10.276 183.200,10.806 208.208,13.495 223.529 C 13.681 224.590,14.034 226.673,14.280 228.158 C 14.731 230.890,16.524 238.729,17.587 242.623 C 17.905 243.790,18.353 245.439,18.582 246.287 C 18.811 247.136,19.395 248.959,19.879 250.338 C 20.363 251.716,21.067 253.886,21.444 255.159 C 22.021 257.111,23.099 259.948,24.667 263.645 C 24.847 264.069,25.213 265.024,25.481 265.767 C 27.450 271.234,34.671 285.192,40.050 293.925 C 51.463 312.457,72.450 334.823,89.296 346.408 C 90.357 347.137,91.283 347.864,91.353 348.023 C 91.424 348.182,91.648 348.312,91.852 348.312 C 92.055 348.312,93.126 348.979,94.231 349.795 C 96.264 351.295,104.393 356.413,104.743 356.413 C 104.848 356.413,105.668 356.877,106.565 357.444 C 107.462 358.011,109.954 359.384,112.101 360.495 C 114.248 361.607,116.331 362.698,116.730 362.921 C 117.128 363.144,118.496 363.784,119.769 364.343 C 121.041 364.901,123.211 365.879,124.590 366.516 C 125.969 367.153,127.445 367.806,127.869 367.967 C 128.293 368.128,130.463 368.966,132.690 369.830 C 134.918 370.694,137.175 371.510,137.705 371.645 C 138.235 371.780,139.016 372.033,139.441 372.207 C 142.320 373.388,148.930 375.279,155.834 376.899 C 158.698 377.571,161.389 378.249,161.813 378.407 C 162.603 378.701,164.515 378.997,176.567 380.695 C 187.995 382.304,210.577 382.510,220.058 381.091 C 221.331 380.901,223.761 380.660,225.458 380.556 C 227.155 380.452,229.585 380.184,230.858 379.962 C 236.715 378.937,241.072 378.053,243.780 377.340 C 244.947 377.033,246.509 376.642,247.252 376.472 C 250.675 375.685,254.993 374.451,257.281 373.605 C 258.660 373.096,261.263 372.221,263.067 371.661 C 264.870 371.102,266.866 370.406,267.502 370.116 C 268.139 369.825,269.600 369.218,270.750 368.766 C 271.900 368.314,273.549 367.629,274.414 367.243 C 275.280 366.857,277.117 366.047,278.496 365.442 C 281.908 363.947,291.949 358.809,293.213 357.911 C 293.776 357.511,294.344 357.184,294.474 357.184 C 295.505 357.184,310.380 347.157,316.683 342.214 C 330.480 331.394,345.041 316.196,353.895 303.375 C 354.920 301.890,356.490 299.634,357.383 298.361 C 361.420 292.607,372.999 271.741,372.999 270.221 C 372.999 270.100,373.326 269.265,373.725 268.366 C 376.843 261.342,381.295 248.810,381.912 245.323 C 382.081 244.368,382.500 242.459,382.844 241.080 C 383.188 239.701,383.559 238.139,383.668 237.608 C 383.777 237.078,384.096 235.863,384.376 234.908 C 384.657 233.954,385.169 231.524,385.515 229.508 C 385.860 227.493,386.300 224.976,386.492 223.915 C 389.693 206.233,389.694 180.129,386.495 162.584 C 386.301 161.524,385.860 159.007,385.515 156.991 C 385.169 154.976,384.657 152.546,384.376 151.591 C 384.096 150.636,383.757 149.335,383.623 148.698 C 383.490 148.062,383.220 146.760,383.023 145.805 C 382.640 143.949,381.963 141.470,381.497 140.212 C 381.339 139.788,380.640 137.618,379.942 135.391 C 378.455 130.642,378.660 131.215,376.088 124.590 C 374.977 121.726,373.550 118.255,372.917 116.876 C 372.285 115.497,371.490 113.680,371.151 112.838 C 370.812 111.997,369.915 110.174,369.158 108.788 C 368.401 107.402,367.212 105.140,366.514 103.761 C 365.817 102.382,364.886 100.646,364.446 99.904 C 364.005 99.161,363.355 98.033,363.001 97.396 C 360.647 93.161,353.019 81.911,349.533 77.531 C 338.324 63.449,328.071 53.346,313.406 41.935 C 309.560 38.942,299.378 32.221,295.289 29.976 C 293.811 29.165,292.422 28.357,292.203 28.181 C 291.583 27.684,280.181 21.947,276.949 20.505 C 269.373 17.126,258.030 13.028,252.073 11.518 C 250.376 11.088,248.640 10.590,248.216 10.411 C 247.792 10.233,247.011 10.008,246.480 9.912 C 245.950 9.816,243.867 9.346,241.851 8.867 C 237.669 7.872,235.815 7.525,230.665 6.770 C 228.650 6.475,225.699 6.042,224.108 5.808 C 217.829 4.886,197.058 3.620,195.564 4.069 M178.206 91.648 C 180.218 91.838,182.660 92.424,186.114 93.545 C 186.962 93.821,188.758 94.670,190.105 95.432 C 191.451 96.194,192.630 96.818,192.724 96.818 C 192.819 96.818,193.280 97.177,193.748 97.617 C 194.217 98.056,195.437 99.054,196.460 99.835 C 198.735 101.570,203.287 106.961,204.918 109.850 C 205.931 111.646,206.167 111.865,206.418 111.246 C 206.584 110.837,206.616 111.239,206.491 112.150 C 206.341 113.243,206.411 113.790,206.701 113.790 C 206.940 113.790,207.136 114.311,207.136 114.947 C 207.136 115.583,207.310 116.104,207.522 116.104 C 207.734 116.104,207.907 116.590,207.907 117.184 C 207.907 117.778,208.064 118.429,208.255 118.631 C 208.594 118.987,209.109 123.808,209.098 126.519 C 209.084 130.033,208.103 135.996,207.476 136.383 C 207.289 136.499,207.136 137.104,207.136 137.728 C 207.136 138.352,206.962 138.862,206.750 138.862 C 206.244 138.862,206.250 140.674,206.757 140.987 C 206.972 141.121,207.029 141.423,206.883 141.660 C 206.713 141.935,206.526 141.829,206.363 141.366 C 206.140 140.729,206.041 140.778,205.536 141.777 C 204.764 143.308,203.902 144.798,203.654 145.034 C 203.542 145.140,203.281 145.595,203.075 146.045 C 202.654 146.964,199.619 150.617,198.496 151.557 C 198.092 151.894,197.116 152.799,196.326 153.568 C 195.536 154.337,194.737 155.034,194.552 155.117 C 192.784 155.907,191.319 157.141,191.774 157.458 C 192.115 157.695,191.980 157.727,191.369 157.554 C 190.866 157.411,190.345 157.443,190.212 157.625 C 189.776 158.223,186.518 159.694,185.632 159.692 C 185.154 159.692,184.764 159.865,184.764 160.077 C 184.764 160.289,184.278 160.463,183.684 160.463 C 183.090 160.463,182.387 160.680,182.121 160.945 C 181.765 161.301,179.457 161.427,173.301 161.427 C 166.973 161.427,164.924 161.311,164.802 160.945 C 164.714 160.680,164.232 160.463,163.732 160.463 C 163.232 160.463,162.715 160.289,162.584 160.077 C 162.453 159.865,162.014 159.691,161.608 159.691 C 160.937 159.691,157.738 158.353,156.798 157.679 C 153.246 155.131,148.230 150.712,146.540 148.641 C 132.501 131.443,137.556 106.041,157.133 95.402 C 161.677 92.932,170.784 90.801,174.735 91.283 C 175.477 91.373,177.040 91.537,178.206 91.648 M209.727 123.337 C 209.638 123.920,209.566 123.443,209.566 122.276 C 209.566 121.109,209.638 120.632,209.727 121.215 C 209.815 121.798,209.815 122.753,209.727 123.337 M209.723 131.244 C 209.631 131.721,209.555 131.331,209.555 130.376 C 209.555 129.421,209.631 129.031,209.723 129.508 C 209.814 129.986,209.814 130.767,209.723 131.244 M262.295 134.312 C 263.462 134.552,264.590 134.870,264.802 135.019 C 265.014 135.168,265.872 135.413,266.707 135.564 C 272.559 136.621,282.081 144.304,285.696 150.887 C 286.401 152.170,286.868 152.632,287.316 152.490 C 287.780 152.342,287.816 152.384,287.451 152.646 C 287.168 152.850,287.067 153.294,287.215 153.679 C 287.424 154.222,287.547 154.254,287.843 153.841 C 288.120 153.455,288.159 153.492,287.998 153.993 C 287.812 154.573,288.298 156.455,289.321 159.113 C 290.604 162.450,290.901 165.829,291.165 180.135 L 291.418 193.828 291.618 180.135 L 291.818 166.442 291.907 180.039 L 291.996 193.635 296.052 193.635 C 298.624 193.635,300.391 193.812,300.885 194.118 C 301.526 194.515,301.734 194.498,302.066 194.021 C 302.420 193.513,302.450 193.513,302.313 194.018 C 302.165 194.561,302.848 195.564,303.366 195.564 C 303.770 195.564,305.471 197.656,305.484 198.168 C 305.491 198.433,305.670 198.650,305.882 198.650 C 306.095 198.650,306.268 199.160,306.268 199.784 C 306.268 201.373,306.963 201.636,307.111 200.104 C 307.178 199.410,307.183 215.156,307.123 235.095 C 307.054 257.732,306.873 271.488,306.641 271.720 C 306.436 271.925,306.268 272.508,306.268 273.017 C 306.268 274.281,303.472 278.092,302.525 278.119 C 302.356 278.123,301.784 278.467,301.254 278.881 C 300.309 279.620,299.365 279.636,255.545 279.635 L 210.800 279.635 208.884 278.583 C 204.117 275.966,203.609 274.291,203.408 260.525 L 203.255 250.075 179.063 249.809 C 165.757 249.662,141.670 249.556,125.537 249.572 C 109.404 249.589,95.922 249.494,95.577 249.362 C 94.654 249.008,94.615 248.657,94.923 243.587 C 97.251 205.291,127.554 174.676,166.351 171.423 C 167.998 171.285,169.440 171.019,169.556 170.832 C 169.848 170.359,177.334 170.401,177.628 170.878 C 177.759 171.090,179.210 171.263,180.852 171.263 C 182.494 171.263,184.003 171.422,184.204 171.615 C 184.406 171.809,185.526 172.047,186.692 172.146 C 187.859 172.245,189.508 172.536,190.357 172.794 C 191.205 173.053,192.465 173.353,193.157 173.463 C 193.848 173.573,194.510 173.817,194.626 174.006 C 194.743 174.195,195.252 174.349,195.757 174.349 C 196.262 174.349,196.777 174.513,196.900 174.713 C 197.024 174.912,197.902 175.192,198.852 175.335 C 199.802 175.477,200.579 175.748,200.579 175.936 C 200.579 176.124,200.915 176.278,201.326 176.278 C 201.738 176.278,203.023 176.798,204.183 177.435 C 205.342 178.071,206.568 178.592,206.906 178.592 C 207.245 178.592,207.522 178.725,207.522 178.887 C 207.522 179.049,208.173 179.490,208.968 179.867 C 211.036 180.848,212.689 181.816,212.979 182.216 C 213.117 182.406,213.499 182.459,213.828 182.332 C 214.222 182.181,214.359 182.277,214.229 182.616 C 214.109 182.927,214.459 183.282,215.116 183.519 C 215.713 183.733,216.610 184.299,217.109 184.775 C 217.857 185.488,218.086 185.547,218.399 185.106 C 218.714 184.664,218.749 184.672,218.600 185.151 C 218.500 185.471,218.634 185.933,218.897 186.179 C 219.276 186.533,219.419 184.220,219.591 174.990 C 219.759 165.932,219.941 162.937,220.414 161.466 C 220.852 160.098,220.905 159.437,220.605 159.075 C 220.314 158.724,220.310 158.367,220.594 157.879 C 220.956 157.258,221.002 157.287,221.031 158.149 C 221.053 158.823,221.324 158.417,221.933 156.798 C 223.144 153.581,225.701 149.214,227.840 146.710 C 229.652 144.590,236.068 138.862,236.632 138.862 C 236.726 138.862,237.635 138.376,238.652 137.782 C 244.811 134.186,254.664 132.740,262.295 134.312 M253.038 146.155 L 254.002 146.427 253.093 146.670 C 252.593 146.803,251.739 146.743,251.195 146.536 C 249.564 145.916,241.436 149.064,242.061 150.075 C 242.180 150.267,242.036 150.332,241.741 150.219 C 240.309 149.670,233.447 158.295,233.987 159.966 C 234.156 160.489,234.119 160.529,233.835 160.131 C 232.423 158.153,231.665 164.407,231.516 179.267 L 231.372 193.635 255.127 193.635 C 277.495 193.635,278.881 193.596,278.875 192.960 C 278.870 192.384,278.815 192.370,278.496 192.864 C 278.250 193.244,278.120 189.237,278.116 181.173 C 278.111 171.978,278.222 168.973,278.556 169.179 C 278.883 169.381,278.935 168.960,278.749 167.605 C 278.610 166.588,278.475 165.389,278.450 164.941 C 278.417 164.352,278.326 164.446,278.120 165.284 C 277.901 166.176,277.836 165.910,277.834 164.123 C 277.831 161.812,277.586 161.105,275.371 157.021 C 274.247 154.949,269.717 150.316,269.061 150.567 C 268.802 150.667,268.345 150.574,268.046 150.362 C 267.616 150.056,267.643 150.021,268.177 150.193 C 268.549 150.312,268.852 150.242,268.852 150.036 C 268.852 149.831,268.687 149.662,268.484 149.662 C 268.281 149.662,267.232 149.142,266.152 148.505 C 265.073 147.869,263.879 147.348,263.500 147.348 C 263.120 147.348,262.685 147.224,262.534 147.072 C 261.891 146.430,258.400 145.841,255.352 145.861 C 253.385 145.874,252.459 145.991,253.038 146.155 M258.341 146.467 C 257.758 146.556,256.803 146.556,256.220 146.467 C 255.636 146.379,256.114 146.307,257.281 146.307 C 258.447 146.307,258.925 146.379,258.341 146.467 M291.577 163.549 C 291.589 164.079,291.430 164.773,291.225 165.092 C 290.962 165.499,290.857 164.985,290.872 163.356 C 290.893 161.084,291.527 161.258,291.577 163.549 M232.866 165.959 C 232.774 166.437,232.699 166.046,232.699 165.092 C 232.699 164.137,232.774 163.746,232.866 164.224 C 232.958 164.701,232.958 165.482,232.866 165.959 M232.112 192.652 C 231.953 192.853,231.861 187.559,231.908 180.887 L 231.993 168.756 232.197 180.521 C 232.309 186.991,232.271 192.450,232.112 192.652 M186.789 171.150 C 186.311 171.242,185.530 171.242,185.053 171.150 C 184.576 171.058,184.966 170.983,185.921 170.983 C 186.876 170.983,187.266 171.058,186.789 171.150 M308.100 253.520 C 308.043 262.907,307.996 255.227,307.996 236.451 C 307.996 217.676,308.043 209.995,308.100 219.383 C 308.158 228.770,308.158 244.132,308.100 253.520 M244.841 280.713 C 238.529 280.773,228.202 280.773,221.890 280.713 C 215.579 280.654,220.743 280.605,233.365 280.605 C 245.988 280.605,251.152 280.654,244.841 280.713 M299.427 280.696 C 298.952 280.787,298.084 280.790,297.498 280.701 C 296.912 280.612,297.300 280.538,298.361 280.535 C 299.421 280.532,299.901 280.604,299.427 280.696 " stroke="none" fill="#1f306d" fill-rule="evenodd"></path><path id="path2" d="M169.893 91.795 C 151.388 93.452,136.695 111.457,138.897 129.775 C 142.618 160.714,180.207 172.116,200.371 148.421 C 202.473 145.951,206.744 138.290,206.756 136.967 C 206.759 136.630,207.037 135.574,207.375 134.619 C 209.410 128.857,207.879 116.979,204.208 110.051 C 200.255 102.591,189.450 93.346,184.683 93.346 C 184.298 93.346,183.680 93.190,183.312 92.998 C 181.093 91.845,175.216 91.318,169.893 91.795 M167.213 171.646 C 127.849 174.214,94.889 208.174,94.889 246.165 L 94.889 248.792 149.373 248.890 L 203.857 248.987 204.068 260.559 C 204.200 267.786,204.441 272.493,204.710 273.095 C 205.439 274.727,207.024 276.612,208.562 277.674 L 210.029 278.689 254.775 278.791 L 299.522 278.894 301.253 278.020 C 306.525 275.357,306.344 276.959,306.195 234.317 L 306.075 199.975 304.725 198.100 C 303.832 196.859,302.658 195.849,301.254 195.112 L 299.132 193.998 259.787 194.092 C 238.148 194.143,220.226 194.051,219.961 193.888 C 219.641 193.690,219.474 192.526,219.464 190.430 C 219.447 186.817,220.073 187.559,213.535 183.398 C 209.874 181.068,203.045 177.668,199.229 176.276 C 197.956 175.811,196.567 175.294,196.143 175.127 C 195.718 174.960,194.590 174.618,193.635 174.367 C 192.681 174.116,191.379 173.756,190.743 173.566 C 186.012 172.156,174.187 171.191,167.213 171.646 " stroke="none" fill="#d55b33" fill-rule="evenodd"></path><path id="path3" d="M186.500 4.104 C 174.362 5.023,159.271 7.612,149.855 10.392 C 149.219 10.580,147.657 11.015,146.384 11.359 C 141.897 12.573,130.394 16.729,125.554 18.885 C 124.706 19.263,122.883 20.064,121.504 20.664 C 47.985 52.650,2.041 134.232,11.822 215.429 C 12.352 219.832,12.813 222.775,14.321 231.394 C 17.694 250.664,28.445 276.903,40.807 296.031 C 65.008 333.480,105.581 363.913,145.997 374.932 C 156.769 377.869,161.547 378.987,161.884 378.650 C 162.161 378.373,162.377 378.436,155.834 376.900 C 148.924 375.278,142.317 373.386,139.441 372.207 C 139.016 372.033,138.235 371.780,137.705 371.645 C 137.175 371.510,134.918 370.694,132.690 369.830 C 130.463 368.966,128.293 368.128,127.869 367.967 C 127.445 367.806,125.969 367.153,124.590 366.516 C 123.211 365.879,121.041 364.901,119.769 364.343 C 118.496 363.784,117.128 363.144,116.730 362.921 C 116.331 362.698,114.248 361.607,112.101 360.495 C 109.954 359.384,107.462 358.011,106.565 357.444 C 105.668 356.877,104.848 356.413,104.743 356.413 C 104.393 356.413,96.264 351.295,94.231 349.795 C 93.126 348.979,92.055 348.312,91.852 348.312 C 91.648 348.312,91.424 348.182,91.353 348.023 C 91.283 347.864,90.357 347.137,89.296 346.408 C 72.450 334.823,51.463 312.457,40.050 293.925 C 34.671 285.192,27.450 271.234,25.481 265.767 C 25.213 265.024,24.847 264.069,24.667 263.645 C 23.099 259.948,22.021 257.111,21.444 255.159 C 21.067 253.886,20.363 251.716,19.879 250.338 C 19.395 248.959,18.811 247.136,18.582 246.287 C 18.353 245.439,17.905 243.790,17.587 242.623 C 16.524 238.729,14.731 230.890,14.280 228.158 C 14.034 226.673,13.681 224.590,13.495 223.529 C 10.806 208.208,10.276 183.200,12.386 171.263 C 12.592 170.096,12.921 167.753,13.117 166.056 C 13.731 160.740,14.705 155.373,16.022 150.048 C 16.363 148.669,16.731 147.107,16.840 146.577 C 16.949 146.046,17.263 144.831,17.537 143.877 C 17.810 142.922,18.257 141.360,18.530 140.405 C 19.569 136.760,23.284 125.855,24.115 124.012 C 24.592 122.951,25.201 121.475,25.468 120.733 C 25.734 119.990,26.709 117.774,27.634 115.808 C 28.559 113.842,29.315 112.080,29.315 111.892 C 29.315 111.703,29.888 110.535,30.588 109.295 C 31.288 108.054,32.447 105.824,33.163 104.339 C 33.880 102.854,34.869 101.102,35.362 100.446 C 35.855 99.789,36.258 99.140,36.258 99.003 C 36.258 98.330,45.270 84.317,46.972 82.343 C 47.160 82.125,47.647 81.431,48.054 80.800 C 48.461 80.169,49.084 79.306,49.437 78.882 C 50.071 78.120,52.570 75.002,53.147 74.253 C 57.563 68.516,70.048 55.527,75.407 51.093 C 76.679 50.041,77.949 48.963,78.231 48.698 C 78.628 48.325,84.233 43.797,86.596 41.940 C 90.709 38.709,100.531 32.281,105.882 29.318 C 107.155 28.613,108.809 27.673,109.557 27.229 C 112.619 25.414,126.205 18.901,126.931 18.901 C 127.135 18.901,127.602 18.747,127.971 18.560 C 128.861 18.107,130.129 17.572,132.690 16.567 C 133.857 16.110,135.159 15.594,135.583 15.422 C 137.371 14.697,145.059 12.248,147.734 11.552 C 149.325 11.137,151.234 10.630,151.977 10.423 C 158.280 8.670,162.846 7.715,169.720 6.713 C 177.676 5.552,178.885 5.420,186.885 4.835 C 191.340 4.509,195.246 4.176,195.564 4.095 C 196.235 3.923,188.788 3.931,186.500 4.104 M204.243 4.035 C 204.455 4.137,208.447 4.493,213.115 4.827 C 217.782 5.161,222.642 5.590,223.915 5.781 C 225.188 5.972,228.052 6.394,230.280 6.719 C 235.830 7.528,237.604 7.857,241.851 8.867 C 243.867 9.346,245.950 9.816,246.480 9.912 C 247.011 10.008,247.792 10.233,248.216 10.411 C 248.640 10.590,250.376 11.088,252.073 11.518 C 258.030 13.028,269.373 17.126,276.949 20.505 C 280.181 21.947,291.583 27.684,292.203 28.181 C 292.422 28.357,293.811 29.165,295.289 29.976 C 299.378 32.221,309.560 38.942,313.406 41.935 C 328.071 53.346,338.324 63.449,349.533 77.531 C 353.019 81.911,360.647 93.161,363.001 97.396 C 363.355 98.033,364.005 99.161,364.446 99.904 C 364.886 100.646,365.817 102.382,366.514 103.761 C 367.212 105.140,368.401 107.402,369.158 108.788 C 369.915 110.174,370.812 111.997,371.151 112.838 C 371.490 113.680,372.285 115.497,372.917 116.876 C 373.550 118.255,374.977 121.726,376.088 124.590 C 378.660 131.215,378.455 130.642,379.942 135.391 C 380.640 137.618,381.339 139.788,381.497 140.212 C 381.963 141.470,382.640 143.949,383.023 145.805 C 383.220 146.760,383.490 148.062,383.623 148.698 C 383.757 149.335,384.096 150.636,384.376 151.591 C 384.657 152.546,385.169 154.976,385.515 156.991 C 385.860 159.007,386.301 161.524,386.495 162.584 C 389.694 180.129,389.693 206.233,386.492 223.915 C 386.300 224.976,385.860 227.493,385.515 229.508 C 385.169 231.524,384.657 233.954,384.376 234.908 C 384.096 235.863,383.777 237.078,383.668 237.608 C 383.559 238.139,383.188 239.701,382.844 241.080 C 382.500 242.459,382.082 244.368,381.914 245.323 C 381.746 246.278,380.707 249.729,379.605 252.993 C 378.504 256.256,377.682 259.006,377.780 259.104 C 377.877 259.202,378.128 258.701,378.336 257.992 C 378.544 257.282,379.273 255.140,379.955 253.230 C 381.193 249.767,381.648 248.262,382.229 245.709 C 382.398 244.966,382.978 242.710,383.517 240.694 C 384.364 237.533,385.183 233.724,386.877 225.072 C 389.133 213.556,390.214 192.632,389.180 180.521 C 388.681 174.675,387.333 163.480,386.903 161.620 C 386.732 160.878,386.376 158.968,386.112 157.377 C 384.718 148.972,382.552 141.240,377.361 126.133 C 365.076 90.383,330.758 49.264,297.782 30.782 C 296.827 30.247,295.178 29.296,294.118 28.668 C 270.077 14.440,237.555 4.910,210.095 4.047 C 206.664 3.939,204.031 3.934,204.243 4.035 M138.566 123.819 C 138.566 124.561,138.645 124.865,138.742 124.494 C 138.839 124.122,138.839 123.515,138.742 123.144 C 138.645 122.772,138.566 123.076,138.566 123.819 M138.566 128.833 C 138.566 129.576,138.645 129.879,138.742 129.508 C 138.839 129.137,138.839 128.529,138.742 128.158 C 138.645 127.787,138.566 128.091,138.566 128.833 M251.460 133.869 C 247.228 134.248,241.937 135.864,238.652 137.782 C 237.635 138.376,236.726 138.862,236.632 138.862 C 236.020 138.862,229.498 144.740,227.634 146.971 C 224.591 150.613,219.906 160.247,220.762 161.103 C 220.875 161.216,221.347 160.035,221.810 158.480 C 224.955 147.921,234.281 138.848,245.341 135.588 C 261.509 130.822,279.104 138.586,286.724 153.848 C 287.714 155.832,288.525 157.787,288.525 158.193 C 288.525 158.599,288.675 159.232,288.859 159.600 C 290.069 162.027,290.170 163.306,290.354 178.496 C 290.467 187.818,290.688 194.021,290.906 194.021 C 291.380 194.021,291.046 167.248,290.532 164.127 C 290.132 161.699,289.817 160.397,289.317 159.113 C 289.152 158.689,288.801 157.647,288.536 156.798 C 285.765 147.912,274.522 136.975,266.707 135.564 C 265.872 135.413,265.014 135.168,264.802 135.019 C 263.429 134.056,256.272 133.439,251.460 133.869 M250.589 145.824 C 249.561 145.997,248.606 146.262,248.468 146.414 C 248.329 146.566,248.650 146.575,249.180 146.435 C 252.779 145.480,261.140 145.851,262.469 147.024 C 262.670 147.202,263.140 147.348,263.512 147.348 C 263.885 147.348,265.073 147.869,266.152 148.505 C 267.232 149.142,268.196 149.662,268.294 149.662 C 269.130 149.662,274.274 155.044,275.396 157.092 C 278.621 162.978,278.575 162.672,278.770 179.460 C 278.877 188.727,279.078 194.021,279.322 194.021 C 280.049 194.021,279.527 166.454,278.749 163.742 C 277.262 158.556,274.189 153.782,270.424 150.806 C 268.700 149.443,267.784 148.854,265.144 147.408 C 261.892 145.626,255.752 144.958,250.589 145.824 M246.480 146.962 C 245.966 147.295,245.966 147.336,246.480 147.336 C 246.798 147.336,247.319 147.168,247.637 146.962 C 248.152 146.630,248.152 146.588,247.637 146.588 C 247.319 146.588,246.798 146.757,246.480 146.962 M243.009 148.613 C 239.691 150.524,235.733 154.742,233.881 158.341 C 232.415 161.190,231.172 164.994,232.179 163.549 C 232.401 163.230,232.585 162.687,232.588 162.341 C 232.618 159.181,238.977 151.277,243.377 148.932 C 245.533 147.782,246.144 147.316,245.419 147.370 C 245.260 147.382,244.176 147.941,243.009 148.613 M220.131 162.401 C 219.990 162.926,219.895 164.311,219.919 165.477 L 219.963 167.599 220.306 164.919 C 220.665 162.121,220.570 160.759,220.131 162.401 M231.301 165.755 C 231.168 166.557,231.092 173.288,231.132 180.714 L 231.203 194.214 231.424 179.364 C 231.545 171.196,231.621 164.464,231.593 164.405 C 231.565 164.345,231.433 164.953,231.301 165.755 M219.396 177.473 C 219.336 182.797,219.414 187.354,219.570 187.598 C 219.726 187.843,219.856 183.486,219.859 177.917 C 219.862 172.348,219.784 167.792,219.685 167.792 C 219.586 167.792,219.456 172.148,219.396 177.473 M120.130 191.418 L 118.997 192.671 120.251 191.538 C 121.419 190.482,121.682 190.164,121.384 190.164 C 121.317 190.164,120.753 190.728,120.130 191.418 M114.540 197.011 L 113.211 198.457 114.658 197.128 C 115.453 196.397,116.104 195.746,116.104 195.681 C 116.104 195.387,115.778 195.664,114.540 197.011 M94.979 241.080 C 94.979 241.823,95.058 242.126,95.155 241.755 C 95.252 241.384,95.252 240.776,95.155 240.405 C 95.058 240.034,94.979 240.338,94.979 241.080 M375.922 263.096 C 375.112 265.009,374.527 266.652,374.623 266.747 C 374.718 266.843,375.443 265.340,376.233 263.408 C 377.024 261.475,377.608 259.832,377.532 259.757 C 377.456 259.681,376.732 261.184,375.922 263.096 M373.600 268.665 C 373.270 269.456,372.999 270.179,372.999 270.272 C 372.999 271.749,361.340 292.721,357.383 298.361 C 356.490 299.634,354.920 301.890,353.895 303.375 C 345.041 316.196,330.480 331.394,316.683 342.214 C 310.380 347.157,295.505 357.184,294.474 357.184 C 294.344 357.184,293.776 357.511,293.213 357.911 C 291.949 358.809,281.908 363.947,278.496 365.442 C 277.117 366.047,275.280 366.857,274.414 367.243 C 273.549 367.629,271.900 368.314,270.750 368.766 C 268.552 369.630,266.984 370.288,265.381 371.020 L 264.417 371.460 265.381 371.241 C 265.911 371.121,266.692 370.875,267.117 370.696 C 267.541 370.517,268.582 370.113,269.431 369.797 C 270.280 369.482,271.929 368.788,273.095 368.255 C 274.262 367.721,275.998 366.967,276.953 366.577 C 278.721 365.856,290.472 360.014,292.575 358.810 C 309.711 348.998,325.757 336.483,337.705 323.608 C 349.264 311.152,355.963 302.089,365.434 286.090 C 368.138 281.522,374.723 267.748,374.371 267.396 C 374.278 267.302,373.931 267.874,373.600 268.665 M260.174 372.590 C 256.380 373.919,255.029 374.486,255.581 374.517 C 256.035 374.544,263.920 371.889,264.190 371.619 C 264.595 371.214,263.009 371.597,260.174 372.590 M251.302 375.388 C 249.817 375.811,247.994 376.298,247.252 376.469 C 246.509 376.641,244.947 377.033,243.780 377.340 C 241.066 378.054,236.662 378.948,230.858 379.961 C 229.585 380.183,227.242 380.444,225.651 380.541 C 224.060 380.639,221.543 380.884,220.058 381.087 C 218.573 381.289,213.476 381.664,208.731 381.920 C 195.419 382.637,182.017 381.794,167.792 379.344 C 164.657 378.805,162.082 378.610,162.424 378.940 C 162.761 379.265,177.076 381.468,181.678 381.903 C 188.915 382.588,207.214 382.805,213.308 382.278 C 223.126 381.429,229.634 380.672,233.523 379.926 C 238.737 378.926,241.499 378.373,242.430 378.144 C 242.854 378.039,243.809 377.807,244.552 377.628 C 245.294 377.449,247.290 376.930,248.987 376.474 C 250.685 376.019,252.651 375.499,253.357 375.320 C 254.723 374.974,255.460 374.516,254.548 374.580 C 254.248 374.601,252.787 374.965,251.302 375.388 " stroke="none" fill="#727da4" fill-rule="evenodd"></path><path id="path4" d="M186.692 94.007 C 187.011 94.125,187.618 94.382,188.042 94.577 C 188.802 94.926,188.802 94.922,188.065 94.332 C 187.653 94.002,187.046 93.746,186.715 93.762 C 186.196 93.789,186.193 93.822,186.692 94.007 M200.182 103.925 C 200.494 104.365,201.128 105.159,201.590 105.689 C 206.756 111.612,209.917 127.421,207.375 134.619 C 207.037 135.574,206.759 136.630,206.756 136.967 C 206.753 137.303,205.811 139.435,204.663 141.704 C 195.489 159.842,173.655 166.465,156.112 156.431 C 152.904 154.596,152.428 154.602,155.142 156.444 C 156.053 157.062,156.885 157.655,156.991 157.762 C 157.465 158.238,160.942 159.691,161.608 159.691 C 162.014 159.691,162.453 159.865,162.584 160.077 C 162.715 160.289,163.232 160.463,163.732 160.463 C 164.232 160.463,164.714 160.680,164.802 160.945 C 164.924 161.311,166.973 161.427,173.301 161.427 C 179.457 161.427,181.765 161.301,182.121 160.945 C 182.387 160.680,183.090 160.463,183.684 160.463 C 184.278 160.463,184.764 160.289,184.764 160.077 C 184.764 159.865,185.154 159.692,185.632 159.692 C 186.518 159.694,189.776 158.223,190.212 157.625 C 190.345 157.443,190.866 157.411,191.369 157.554 C 191.980 157.727,192.115 157.695,191.774 157.458 C 191.319 157.141,192.784 155.907,194.552 155.117 C 194.737 155.034,195.536 154.337,196.326 153.568 C 197.116 152.799,198.092 151.894,198.496 151.557 C 199.619 150.617,202.654 146.964,203.075 146.045 C 203.281 145.595,203.542 145.140,203.654 145.034 C 203.902 144.798,204.764 143.308,205.536 141.777 C 206.041 140.778,206.140 140.729,206.363 141.366 C 206.526 141.829,206.713 141.935,206.883 141.660 C 207.029 141.423,206.972 141.121,206.757 140.987 C 206.250 140.674,206.244 138.862,206.750 138.862 C 206.962 138.862,207.136 138.352,207.136 137.728 C 207.136 137.104,207.289 136.499,207.476 136.383 C 208.103 135.996,209.084 130.033,209.098 126.519 C 209.109 123.808,208.594 118.987,208.255 118.631 C 208.064 118.429,207.907 117.778,207.907 117.184 C 207.907 116.590,207.734 116.104,207.522 116.104 C 207.310 116.104,207.136 115.583,207.136 114.947 C 207.136 114.311,206.940 113.790,206.701 113.790 C 206.411 113.790,206.341 113.243,206.491 112.150 C 206.615 111.249,206.585 110.834,206.424 111.229 C 206.183 111.821,205.879 111.516,204.695 109.494 C 203.905 108.144,202.438 106.159,201.436 105.082 C 200.434 104.006,199.870 103.485,200.182 103.925 M209.566 122.276 C 209.566 123.443,209.638 123.920,209.727 123.337 C 209.815 122.753,209.815 121.798,209.727 121.215 C 209.638 120.632,209.566 121.109,209.566 122.276 M209.555 130.376 C 209.555 131.331,209.631 131.721,209.723 131.244 C 209.814 130.767,209.814 129.986,209.723 129.508 C 209.631 129.031,209.555 129.421,209.555 130.376 M251.398 146.589 C 251.916 146.797,252.617 146.797,253.134 146.589 C 253.843 146.304,253.684 146.240,252.266 146.240 C 250.849 146.240,250.690 146.304,251.398 146.589 M256.220 146.467 C 256.803 146.556,257.758 146.556,258.341 146.467 C 258.925 146.379,258.447 146.307,257.281 146.307 C 256.114 146.307,255.636 146.379,256.220 146.467 M220.472 158.020 C 220.336 158.374,220.405 158.843,220.624 159.062 C 220.898 159.336,221.022 159.135,221.022 158.419 C 221.022 157.229,220.830 157.089,220.472 158.020 M290.872 163.356 C 290.857 164.985,290.962 165.499,291.225 165.092 C 291.677 164.392,291.677 162.865,291.225 161.813 C 290.989 161.264,290.887 161.710,290.872 163.356 M232.699 165.092 C 232.699 166.046,232.774 166.437,232.866 165.959 C 232.958 165.482,232.958 164.701,232.866 164.224 C 232.774 163.746,232.699 164.137,232.699 165.092 M277.814 165.092 C 277.814 165.834,277.893 166.138,277.990 165.767 C 278.087 165.395,278.087 164.788,277.990 164.417 C 277.893 164.045,277.814 164.349,277.814 165.092 M291.610 180.232 L 291.418 194.022 295.275 194.030 C 300.099 194.040,302.567 195.103,304.725 198.100 L 306.075 199.975 306.195 234.317 C 306.344 276.959,306.525 275.357,301.253 278.020 L 299.522 278.894 254.775 278.791 L 210.029 278.689 208.562 277.674 C 207.024 276.612,205.439 274.727,204.710 273.095 C 204.441 272.493,204.200 267.786,204.068 260.559 L 203.857 248.987 149.277 248.902 C 112.058 248.844,94.911 248.942,95.370 249.210 C 95.813 249.468,106.120 249.592,125.457 249.572 C 141.634 249.556,165.757 249.662,179.063 249.809 L 203.255 250.075 203.408 260.525 C 203.609 274.291,204.117 275.966,208.884 278.583 L 210.800 279.635 255.545 279.635 C 299.365 279.636,300.309 279.620,301.254 278.881 C 301.784 278.467,302.356 278.123,302.525 278.119 C 303.472 278.092,306.268 274.281,306.268 273.017 C 306.268 272.508,306.436 271.925,306.641 271.720 C 306.873 271.488,307.054 257.732,307.123 235.095 C 307.183 215.156,307.178 199.410,307.111 200.104 C 306.963 201.636,306.268 201.373,306.268 199.784 C 306.268 199.160,306.095 198.650,305.882 198.650 C 305.670 198.650,305.491 198.433,305.484 198.168 C 305.471 197.656,303.770 195.564,303.366 195.564 C 302.848 195.564,302.165 194.561,302.313 194.018 C 302.450 193.513,302.420 193.513,302.066 194.021 C 301.734 194.498,301.526 194.515,300.885 194.118 C 300.392 193.812,298.625 193.635,296.056 193.635 L 292.006 193.635 291.904 180.039 L 291.803 166.442 291.610 180.232 M231.908 180.887 C 231.861 187.559,231.953 192.853,232.112 192.652 C 232.271 192.450,232.309 186.991,232.197 180.521 L 231.993 168.756 231.908 180.887 M278.116 181.173 C 278.120 189.237,278.250 193.244,278.496 192.864 C 279.008 192.072,279.008 169.458,278.496 169.142 C 278.242 168.985,278.112 173.090,278.116 181.173 M169.415 170.974 C 169.099 171.355,170.080 171.472,174.093 171.530 C 178.750 171.597,187.887 172.715,190.743 173.566 C 191.379 173.756,192.681 174.116,193.635 174.367 C 194.590 174.618,195.718 174.960,196.143 175.127 C 196.567 175.294,197.956 175.808,199.229 176.269 C 204.566 178.201,213.374 182.960,218.226 186.533 C 219.021 187.118,219.094 187.120,219.094 186.547 C 219.094 186.202,218.925 185.921,218.720 185.921 C 218.514 185.921,218.444 185.617,218.563 185.246 C 218.733 184.720,218.697 184.689,218.399 185.106 C 218.086 185.547,217.857 185.488,217.109 184.775 C 216.610 184.299,215.713 183.733,215.116 183.519 C 214.459 183.282,214.109 182.927,214.229 182.616 C 214.359 182.277,214.222 182.181,213.828 182.332 C 213.499 182.459,213.117 182.406,212.979 182.216 C 212.689 181.816,211.036 180.848,208.968 179.867 C 208.173 179.490,207.522 179.049,207.522 178.887 C 207.522 178.725,207.245 178.592,206.906 178.592 C 206.568 178.592,205.342 178.071,204.183 177.435 C 203.023 176.798,201.738 176.278,201.326 176.278 C 200.915 176.278,200.579 176.124,200.579 175.936 C 200.579 175.748,199.802 175.477,198.852 175.335 C 197.902 175.192,197.024 174.912,196.900 174.713 C 196.777 174.513,196.262 174.349,195.757 174.349 C 195.252 174.349,194.743 174.195,194.626 174.006 C 194.510 173.817,193.848 173.573,193.157 173.463 C 192.465 173.353,191.205 173.053,190.357 172.794 C 189.508 172.536,187.859 172.245,186.692 172.146 C 185.526 172.047,184.406 171.809,184.204 171.615 C 184.003 171.422,182.494 171.263,180.852 171.263 C 179.210 171.263,177.759 171.090,177.628 170.878 C 177.268 170.296,169.906 170.382,169.415 170.974 M185.053 171.150 C 185.530 171.242,186.311 171.242,186.789 171.150 C 187.266 171.058,186.876 170.983,185.921 170.983 C 184.966 170.983,184.576 171.058,185.053 171.150 M243.326 193.925 C 249.971 193.984,260.733 193.984,267.241 193.925 C 273.749 193.865,268.312 193.817,255.159 193.817 C 242.006 193.817,236.681 193.865,243.326 193.925 M307.996 236.451 C 307.996 255.227,308.043 262.907,308.100 253.520 C 308.158 244.132,308.158 228.770,308.100 219.383 C 308.043 209.995,307.996 217.676,307.996 236.451 M221.890 280.713 C 228.202 280.773,238.529 280.773,244.841 280.713 C 251.152 280.654,245.988 280.605,233.365 280.605 C 220.743 280.605,215.579 280.654,221.890 280.713 M297.498 280.701 C 298.084 280.790,298.952 280.787,299.427 280.696 C 299.901 280.604,299.421 280.532,298.361 280.535 C 297.300 280.538,296.912 280.612,297.498 280.701 " stroke="none" fill="#3d2d3c" fill-rule="evenodd"></path></g></svg>